:FULLY-SPECIFIED
:FORCE-ALL-JOINTS-BE-3DOF
:DEGREES
1529
root -4.45894 15.3216 20.0365 548.575 -14.8806 545.127
lfemur -38.2614 17.4752 -3.97266
ltibia 82.6269 -0 0
lfoot -11.8128 21.6838 -0.013203
ltoes -26.0149 0 0
rfemur -33.3685 -6.35907 14.8198
rtibia 61.1774 -0 0
rfoot -19.5814 -14.289 0.0192138
rtoes -32.5452 0 0
lowerback 17.3152 0.731913 5.30705
upperback -1.39365 2.27274 3.83078
thorax -11.2672 0.780763 0.620135
lowerneck -4.63349 7.59632 3.87688
upperneck 1.59557 10.1469 -9.15882
head 2.07487 4.8681 -3.28872
lclavicle 1.11427e-14 3.27169e-14 2.83715e-31
lhumerus -5.73735 -8.91341 78.5083
lradius 76.8126 -0 0
lwrist 5.52166 0 0
lhand -23.0163 35.8788 0.085424
lfingers 7.12502 -0 0
lthumb -0.475514 70.3071 -0.0159877
rclavicle -1.64882e-15 6.30493e-14 -2.26992e-30
rhumerus -52.327 35.555 -91.3912
rradius 108.322 -0 0
rwrist -55.7817 0 0
rhand 11.1991 -27.6308 0.0679713
rfingers 7.12502 -0 0
rthumb 36.8557 -53.3381 0.0233593
1530
root -4.44989 15.3256 20.0573 548.282 -17.7309 545.098
lfemur -37.7885 17.85 -3.67614
ltibia 83.0973 -0 0
lfoot -11.912 21.9555 -0.0141624
ltoes -26.298 0 0
rfemur -32.28 -6.80374 14.4228
rtibia 60.9733 -0 0
rfoot -19.1332 -14.1129 0.0404897
rtoes -32.2211 0 0
lowerback 17.2957 0.75359 5.14247
upperback -1.34161 2.26573 3.69009
thorax -11.1967 0.792535 0.557268
lowerneck -4.78933 7.05737 3.77972
upperneck 1.39921 9.40031 -8.58263
head 1.9409 4.51438 -3.10941
lclavicle 1.08393e-14 3.38121e-14 7.39298e-32
lhumerus -7.75558 -5.99757 78.0398
lradius 76.6964 0 0
lwrist 3.35412 0 0
lhand -23.5371 35.5685 0.0926843
lfingers 7.12502 -0 0
lthumb -0.45388 69.373 -0.016702
rclavicle -4.63724e-15 6.09267e-14 -2.55852e-30
rhumerus -52.3608 35.5207 -91.4286
rradius 107.95 -0 0
rwrist -56.8648 0 0
rhand 10.535 -27.8771 0.0986849
rfingers 7.12502 -0 0
rthumb 36.5273 -53.4677 0.0344547
1531
root -4.45661 15.3324 20.073 547.989 -20.9341 544.866
lfemur -37.4353 18.127 -3.45335
ltibia 83.3903 -0 0
lfoot -12.0135 22.2336 -0.014657
ltoes -26.5859 0 0
rfemur -31.2394 -7.22021 14.0364
rtibia 60.8076 -0 0
rfoot -18.5393 -13.8795 0.0665557
rtoes -31.7008 0 0
lowerback 17.273 0.693686 4.87489
upperback -1.32235 2.134 3.57197
thorax -11.1691 0.751998 0.610919
lowerneck -4.842 6.508 3.44305
upperneck 1.31238 8.65902 -7.8065
head 1.80627 4.16558 -2.82061
lclavicle 1.07344e-14 3.4191e-14 0
lhumerus -9.28423 -3.81499 77.621
lradius 76.6224 -0 0
lwrist 1.1671 0 0
lhand -24.0731 35.249 0.0972097
lfingers 7.12502 -0 0
lthumb -0.431922 68.4252 -0.0170661
rclavicle -7.75329e-15 5.87134e-14 -2.74154e-30
rhumerus -52.4581 35.4213 -91.5365
rradius 107.522 -0 0
rwrist -57.6696 0 0
rhand 9.76476 -28.1632 0.130725
rfingers 7.12502 -0 0
rthumb 36.143 -53.6195 0.0464965
1532
root -4.4718 15.3435 20.0828 547.709 -24.0063 544.757
lfemur -37.2143 18.2989 -3.31343
ltibia 83.4913 0 0
lfoot -12.1159 22.5137 -0.014657
ltoes -26.8753 0 0
rfemur -30.2623 -7.60355 13.6677
rtibia 60.6842 -0 0
rfoot -17.8189 -13.596 0.0949218
rtoes -31.0008 0 0
lowerback 17.1529 0.713425 4.52244
upperback -1.30283 2.08962 3.58886
thorax -11.0912 0.759682 0.839779
lowerneck -4.90625 5.94287 3.00132
upperneck 1.34358 7.91134 -7.10161
head 1.72121 3.80688 -2.53618
lclavicle 1.08737e-14 3.4113e-14 2.02047e-32
lhumerus -10.254 -2.44567 77.3276
lradius 76.4077 -0 0
lwrist -1.01992 0 0
lhand -24.6167 34.925 0.0987467
lfingers 7.12502 -0 0
lthumb -0.409855 67.473 -0.0170661
rclavicle -1.09331e-14 5.64548e-14 -2.80421e-30
rhumerus -52.6129 35.2624 -91.7082
rradius 107.047 -0 0
rwrist -58.171 0 0
rhand 8.90327 -28.4836 0.161992
rfingers 7.12502 -0 0
rthumb 35.709 -53.791 0.058872
1533
root -4.50539 15.3614 20.0866 547.637 -27.4267 544.433
lfemur -37.138 18.358 -3.26503
ltibia 83.3223 -0 0
lfoot -12.2174 22.7918 -0.0141624
ltoes -27.1632 0 0
rfemur -29.364 -7.94927 13.3238
rtibia 60.6072 -0 0
rfoot -16.9916 -13.2701 0.12309
rtoes -30.1373 0 0
lowerback 16.6943 0.592089 4.13883
upperback -1.2626 1.82717 3.55535
thorax -10.7948 0.670033 1.08814
lowerneck -4.87994 5.3698 2.62462
upperneck 1.25449 7.14636 -6.44874
head 1.59616 3.44163 -2.2851
lclavicle 1.12764e-14 3.38875e-14 7.75381e-32
lhumerus -10.5927 -1.97062 77.2202
lradius 76.0631 -0 0
lwrist -3.18746 0 0
lhand -25.1604 34.6011 0.0972097
lfingers 7.12502 -0 0
lthumb -0.387897 66.5252 -0.016702
rclavicle -1.4113e-14 5.41963e-14 -2.74154e-30
rhumerus -52.8187 35.0491 -91.9366
rradius 106.534 -0 0
rwrist -58.3438 0 0
rhand 7.9659 -28.8327 0.190531
rfingers 7.12502 -0 0
rthumb 35.2313 -53.9798 0.0709865
